<?xml version="1.0" standalone="no"?>
<!DOCTYPE svg PUBLIC "-//W3C//DTD SVG 20010904//EN"
 "http://www.w3.org/TR/2001/REC-SVG-20010904/DTD/svg10.dtd">
<svg version="1.0" xmlns="http://www.w3.org/2000/svg"
 width="1280.000000pt" height="1280.000000pt" viewBox="0 0 1280.000000 1280.000000"
 preserveAspectRatio="xMidYMid meet">
<metadata>
Created by potrace 1.15, written by Peter Selinger 2001-2017
</metadata>
<g transform="translate(0.000000,1280.000000) scale(0.100000,-0.100000)"
fill="#000000" stroke="none">
<path d="M1540 12210 c0 -380 3 -580 10 -580 7 0 10 200 10 580 0 380 -3 580
-10 580 -7 0 -10 -200 -10 -580z"/>
<path d="M11240 12210 c0 -380 3 -580 10 -580 7 0 10 200 10 580 0 380 -3 580
-10 580 -7 0 -10 -200 -10 -580z"/>
<path d="M10 11250 c0 -7 200 -10 580 -10 380 0 580 3 580 10 0 7 -200 10
-580 10 -380 0 -580 -3 -580 -10z"/>
<path d="M11630 11250 c0 -7 200 -10 580 -10 380 0 580 3 580 10 0 7 -200 10
-580 10 -380 0 -580 -3 -580 -10z"/>
<path d="M4410 9259 c-275 -20 -609 -73 -817 -129 l-83 -22 0 -309 c0 -264 -2
-309 -15 -309 -41 0 -353 -113 -507 -184 l-78 -35 0 -131 0 -130 -300 0 -300
0 0 -2240 0 -2240 4090 0 4090 0 0 2235 0 2235 -300 0 -300 0 0 134 0 134 -37
15 c-21 9 -81 35 -133 58 -101 44 -238 93 -357 128 l-73 22 -2 307 -3 307
-130 32 c-678 170 -1595 170 -2290 2 -142 -35 -214 -57 -354 -112 l-105 -40
-45 18 c-382 147 -719 218 -1210 255 -156 12 -573 11 -741 -1z m700 -239 c417
-29 756 -89 1040 -183 l125 -42 3 -1997 c1 -1099 0 -1998 -2 -1998 -3 0 -35
11 -73 24 -614 219 -1517 274 -2291 141 -79 -14 -145 -25 -147 -25 -3 0 -4
896 -3 1992 l3 1992 95 17 c143 26 479 68 620 78 181 12 463 12 630 1z m3380
-25 c148 -14 338 -40 483 -65 l67 -12 0 -1995 c0 -1895 -1 -1994 -17 -1989
-41 13 -320 56 -473 73 -208 23 -836 26 -1025 5 -338 -37 -630 -95 -859 -170
l-146 -47 0 1991 0 1990 93 31 c311 106 709 178 1109 203 181 12 579 4 768
-15z m-4978 -2545 c-2 -990 0 -1800 3 -1800 4 0 41 9 83 19 177 45 428 83 697
106 212 18 721 21 930 5 473 -36 872 -117 1115 -226 l61 -27 77 31 c239 95
513 157 872 196 644 70 1249 34 1822 -110 53 -13 99 -24 102 -24 3 0 6 814 6
1808 0 995 2 1811 5 1814 7 6 196 -57 300 -100 l70 -29 0 -396 c0 -218 -1
-1111 -3 -1983 l-2 -1586 -22 5 c-13 3 -75 24 -138 46 -153 54 -429 123 -619
155 -783 132 -1662 79 -2330 -139 l-141 -46 -140 46 c-479 156 -982 224 -1570
212 -522 -11 -959 -82 -1364 -223 -72 -25 -141 -48 -153 -51 l-23 -5 0 1324
c0 729 -3 1621 -7 1984 l-6 659 95 38 c107 42 258 96 273 96 7 1 9 -603 7
-1799z m-602 -685 l0 -1995 -180 0 -180 0 0 1989 0 1990 53 4 c28 2 109 4 180
5 l127 2 0 -1995z m7340 0 l0 -1995 -180 0 -180 0 0 1995 0 1995 180 0 180 0
0 -1995z m-5130 -1585 c440 -30 784 -94 1130 -211 l150 -50 150 50 c284 96
519 144 935 193 151 17 848 18 1010 0 548 -60 1039 -194 1350 -369 l40 -23
-3483 0 c-1948 0 -3481 4 -3478 9 9 13 191 100 311 147 513 200 1239 298 1885
254z"/>
<path d="M10 1550 c0 -7 200 -10 580 -10 380 0 580 3 580 10 0 7 -200 10 -580
10 -380 0 -580 -3 -580 -10z"/>
<path d="M11630 1550 c0 -7 200 -10 580 -10 380 0 580 3 580 10 0 7 -200 10
-580 10 -380 0 -580 -3 -580 -10z"/>
<path d="M1540 590 c0 -380 3 -580 10 -580 7 0 10 200 10 580 0 380 -3 580
-10 580 -7 0 -10 -200 -10 -580z"/>
<path d="M11240 590 c0 -380 3 -580 10 -580 7 0 10 200 10 580 0 380 -3 580
-10 580 -7 0 -10 -200 -10 -580z"/>
</g>
</svg>
